<?xml version="1.0" encoding="utf-8"?>
<!-- Generator: Adobe Illustrator 22.1.0, SVG Export Plug-In . SVG Version: 6.00 Build 0)  -->
<svg version="1.1" id="Layer_1" xmlns="http://www.w3.org/2000/svg" xmlns:xlink="http://www.w3.org/1999/xlink" x="0px" y="0px"
	 viewBox="0 0 1366 768" style="enable-background:new 0 0 1366 768;" xml:space="preserve">
<style type="text/css">
	.st0{fill:none;stroke:#333333;stroke-width:5;stroke-miterlimit:10;}
	.st1{fill:#333333;}
	.st2{font-family:'ChunkFive-Roman';}
	.st3{font-size:179.8668px;}
	.st4{font-size:66.7288px;}
</style>
<line class="st0" x1="418.9" y1="484.4" x2="915.9" y2="484.4"/>
<g>
	<path class="st1" d="M685.9,334.8c-0.7,11.3-14.5,26-25.8,28.6c-0.6-1.8,1.6-3,1.8-5.4c-6.7,3.9-12.1,8.3-19.9,11.6
		c1.1-4.6,4.2-7.8,4.7-12.9c-6.7,4.5-11.3,9.1-15.6,13.9c-4.4,4.8-7.4,10.1-10.5,15.6c-3.2-8.7-1.6-17.3,0-25.9
		c-2.7-0.4-2.9,2.1-5.1,2.1c-1.4-0.8-0.3-1.7,0.1-2.5c4.1-9,10.1-17.2,18.7-24.1c8.7-7,17.5-14,20.1-24.1c0.1-0.5,0.7-0.8,1.5-1.6
		c1.6,2.1,0.9,4,0.4,5.8c-2,7.7-7.2,14.2-13,20.5c-1.2,1.3-3.7,2.3-1.1,4.5c1.2,1-0.8,2.2-1.6,3.2c-3.6,4.4-6.9,8.9-8.1,14.4
		c10-5.6,19.3-12,32-15.5c-1.5,3.9-5.3,6-6.1,9.9c7.6-3.7,11.1-9.5,16-14.8c2.5,2.9-0.6,5.8,0.9,8.7
		C679.9,343.7,681.8,339.3,685.9,334.8z"/>
	<path class="st1" d="M671.3,305.5c-5-2-9.5-3.9-14.4-4.8c-10.2-2-20-1.4-29.7,1.7c-1.6,0.5-3.7,2-4.8-0.3c-0.9-1.9,1.3-2.6,3.1-3.2
		c6.9-2.5,14.2-3.6,21.8-3.8c0.9,0,4.6,1.6,2.8-1.8c-0.3-0.6,1.6-0.7,2.6-0.7c5.6-0.1,11.2-0.1,16.6,1.2c1.8,0.4,3.6,0.7,6.5,1.3
		c-3.3-5.4-9-8-13.4-11.9c5-1.8,9.5,0.2,15.1,0c-3.6-5.5-9.2-8.7-16-11.6c4.8-2.1,9.1-0.9,13.4-0.9c-1.1-2.2-3.5-2.9-5.6-3.8
		c-3.2-1.4-5.3-2.5,0.4-3.9c-2.9-2.4-7-3-9.2-5.9c15.2,1.1,23.2,3.5,27.7,8.3c-2.5,1-4.7-0.5-7.1-0.3c-1.4,0.1-3-0.3-3.8,0.8
		c-0.9,1.3,0.9,1.9,1.7,2.7c2.6,2.4,5.3,4.8,7.8,7.2c0.9,0.9,2.6,2,1.3,3.2c-1,0.9-2.6,0-3.9-0.3c-0.8-0.2-1.6-0.5-3.3-0.9
		c4.2,5.7,9.9,10.1,12.3,16.5c-4.6-0.7-7.4-3.8-12.7-3.9c5.2,5.7,9.3,11.4,11,18.1c-7.1-4.6-14.3-8.8-23.9-10.1
		C667.1,301.2,671.5,302.2,671.3,305.5z"/>
	<path class="st1" d="M585.2,261.5c4.1,1,5.3,3.2,5.7,6.5c1.5,13.1,10.5,19,27.2,18c1.4-0.1,2.8-0.3,4.1-0.3c1.8-0.1,2.8,0.9,3.6,2
		c1,1.3-0.1,2.1-1.2,2.8c-5.2,3.4-5.8,7.9-4.3,12.7c0.7,2.2,0.4,4.2-2.4,4.6c-3.3,0.5-3.9-2-4-3.9c-0.1-3.1,0.4-6.3,0.7-9.4l0,0
		c1.6-1.4,4.5-3,3.4-4.6c-1.2-1.8-4.5-0.6-6.7-0.3c-7.7,0.9-14.9-0.6-22.1-2.2c-2-0.5-3.3-1.5-4.5-2.7c-3.5-3.6-7.1-7.1-10.6-10.7
		c-3.8-3.9-3.4-6.3,1.4-9.5c2-1.3,4.2-2.5,6.3-3.7C583,260.9,584.1,261.2,585.2,261.5z"/>
	<path class="st1" d="M701.8,302.6c4.7,3,8.2,5.3,12,7.8c1-2.6-2.3-3.9-1.5-6.1c3.9,0.4,6.9,2.5,10.4,3.4c3.4,0.9,6.7,2.2,11.3,2.1
		c-2.9-3-5.3-5.5-7.8-8.1c-0.7-0.8-1.9-1.6-1.2-2.6c0.8-1.1,2.2-0.3,3.3-0.1c6.9,1.3,13.8,1.4,20.8,0.9c1.4-0.1,2.8-0.3,4.1,0.3
		c5.5,2.8,11.5,5,17.9,6.8c-9.6,1.8-19,1.1-29.4-0.4c2.4,2.6,5.2,3.8,7.7,5.2c2.7,1.4,5.5,2.7,8.1,4.5c-10.8,1.4-21.1-0.5-32.1-3
		c2.4,3.6,6.3,5,9.3,7.3C725.9,322.2,706.9,312.1,701.8,302.6z"/>
	<path class="st1" d="M597.7,291.7c-5.8,1.4-11.4,3.1-16.7,5.4c-0.9,0.4-2.4-0.1-3.5-0.3c-8.6-1.5-12.4,1.5-10.5,8.1
		c0.2,0.6,0.8,1.3,0,1.9c-16.9-7.3-20.8-20-9.7-29.2c2.2-1.8,4.4-3.5,6.7-5.1c6.2-4.1,6.7-3.9,9.1,2.2c0.8,2.1-1.3,2.3-2.6,2.8
		c-5.8,2.4-9.4,6.1-10.2,11.2c-0.5,3.6,0.3,3.6,4.6,2.8c9.4-1.7,19.3-0.2,28.8-2c1.1-0.2,2.5,0.6,3.8,1
		C597.5,291,597.6,291.4,597.7,291.7z"/>
	<path class="st1" d="M692.7,204.1c-3.1,10.2-8.8,18.7-20.3,24.3c-4.7,2.2-8.7,5-12.4,8.2c-3.4,2.9-5.5,6.3-6.2,10.2
		c-0.2,1.1,0.9,2.8-1.3,3.1c-1.6,0.2-2.8-1-3.9-1.9c-4.9-4-4.5-8.7,0.2-12.9c3.6-3.2,5.3-7.7,10.6-9.8c3.1-1.2,5.8-3,9-4.1
		c9.6-3.3,17.3-8.2,21.8-15.8c0.3-0.5,0.8-0.9,1.3-1.3C691.6,204.1,691.9,204.1,692.7,204.1z"/>
	<path class="st1" d="M767.2,302.7c-8.5-1.7-14.9-5.7-19.1-11.6c-6.9-9.6-14.2-18.9-23.2-27.3c-6.8-6.3-13.8-12.4-23.6-16
		c-0.9-0.3-2.3-0.6-2-1.6c0.4-1.3,2-0.8,3.1-0.8c2.3,0,4.3,0.8,6.3,1.7c9,3.9,16.3,9.3,23,15.3C745.4,274.8,754.1,289.9,767.2,302.7
		z"/>
	<path class="st1" d="M639.2,245.8c-0.4,2.9-2.3,4.9-4,7c-1.4,1.7-4.4,2.9-2.4,5.6c0.2,0.3-0.6,1.3-1.2,1.7c-5.3,3.3-9,8.2-16.5,9.1
		c-2,0.2-3.9,1.1-6.2,1.3c6.7-3.9,11.3-9.3,17.7-14.3c-4.2,0.2-7.6,1.1-11.2,0.5c-2.4-0.4-3.5,1.9-4.5,3.5
		c-3.5,5.6-10.2,8.1-17.4,6.1c-2.4-0.7-1.4-2.6-0.4-3.8c2.5-2.9,6.1-5,10.1-6.3c8.7-2.8,17.9-4.7,24-10.8c0.7,0.6,1.1,0.8,1.1,1
		c0.6,1.6-2.8,3.5-0.7,4.4c2.1,0.9,4.2-1.3,6.3-2.3C635.6,247.6,636.5,246,639.2,245.8z"/>
	<path class="st1" d="M709.9,237.9c1.8,1.8,5.4,2.1,4.8,4c-0.5,1.7-3.9,1.2-5.9,1.8c-1,0.3-2,0.6-3,0.7c-2.2,0.2-5.3,0.8-6-1.1
		c-0.7-1.7,3.1-1.1,4.1-2.5c0.6-2.6-9.9-0.9-3.5-5.8c-2-1-4.2-0.3-6.1-0.6c-1.2-0.2-4.8,2-3.3-1.8c0.3-0.8-1.6,0.1-2.5,0.1
		c-1.5,0.1-3.4,2.1-4.5,0.2c-0.9-1.6,0-3.6,1.9-4.8c0.9-0.6,2.2-0.9,3.3-1.2c12.6-3.1,25.4-5.2,38.6-6.2
		c-8.4,3.4-17.7,5.3-25.8,10.2c7,1.7,14.1,1.7,20.7,4.5C718.4,237.6,713.8,236.2,709.9,237.9z"/>
	<path class="st1" d="M585.2,261.5c-1.1-0.3-2.3-0.6-3.4-0.9c-4.5-2-1.6-5.7-2.9-8.4c3,1.5,3.9-3.1,6.9-1.4c0.9,0.5,1.5,0.6,2.2-0.2
		c6.5-7.2,16.1-11.6,25.1-16.6c6.5-3.6,13.1-7.1,18.3-12.2c-0.3,3-2.5,5.2-4.8,6.9c-12,9-23.4,18.3-34.4,28
		C590,258.7,589.6,261.8,585.2,261.5z"/>
	<path class="st1" d="M657.3,222c1.7-0.1,3.2-1.1,5.1-0.4c-1.1,2-3.6,2.6-5.5,3.6c-3.5,1.9-7,3.7-8.6,7c-0.5,1.1-1.7,1.7-3,2.2
		c-5.9,2-11.6,4.4-17.2,7.7c-0.5-2.9,2.2-4.5,2.9-7.2c-8.2,2.1-13.7,6.8-20.5,10.4c2.7-6.4,29.1-22.2,43.9-26.4
		c-1,2.9-5.1,3.6-6.1,6.7c2.8-1.1,4.9-1.9,7-2.8C656,222.5,656.6,222.2,657.3,222z"/>
	<path class="st1" d="M687.3,219.3c-0.5,4.5-2.5,7.5-4,10.5c-2,4.3-4,8.5-3.6,13.1c0.1,1.6-0.6,2.4-2.5,3.1
		c-7.2,2.7-7.2,2.7-3.1,8.3c-5.1-1.1-7.4-4.2-10.2-6.8c-1.1-1.1,0.4-1.6,1.5-2.1c6.2-2.6,8.8-6.8,8.4-12.1c-0.2-2.6,1.1-4.3,3.6-5.9
		C680.7,225.2,683.4,222.6,687.3,219.3z"/>
	<path class="st1" d="M590.6,321.7c7.9-1.9,10.6-6.3,12.7-11.1c0.5-1.1,1.3-2.3,2.4-3.2c1.9-1.6,2.3-4.6,5.9-4.6
		c1.7,0,3.5,8,2.4,9.7c-2,2.9-4.5,5.6-7.4,7.9C602.2,323.9,597.1,324.5,590.6,321.7z"/>
	<path class="st1" d="M577.9,289.7c-4.6-1-9.2-1.3-14,0.5c-2.1,0.8-1.9-1-1.9-2c0.2-3.5,6.9-9.3,11.3-10c1.7-0.2,2.6,0.4,3.5,1.3
		c1.7,1.5,3.4,3.1,5,4.7c0.9,0.9,2.5,1.9,1.5,3.2C582.2,288.8,580.4,289.6,577.9,289.7z"/>
	<path class="st1" d="M639.1,324c4.5-7.2,10-14.2,0.5-21.4c5.2-2.2,7.5-1.7,10.2,1.9c0.7,0.9,0.7,2.3,3.2,1.9
		c2.2-0.4,1.4,1.4,1.2,2.3C652.5,315.6,647.1,320.5,639.1,324z"/>
	<path class="st1" d="M614.6,294.4c-1.9,4.5-5.8,6.7-11.7,8.1c-6,1.4-8.8,5.9-11.9,9.9c-2.2-0.7-1.3-1.9-1.1-2.9
		c1.7-7.4,12.5-15.2,21.8-15.9C612.9,293.5,613.8,293.9,614.6,294.4C614.6,294.5,614.6,294.4,614.6,294.4z"/>
	<path class="st1" d="M657.3,222c-0.7,0.3-1.4,0.6-2.1,0.8c-0.8-2.3,1.3-3.6,2.8-5c4.8-4.5,10.6-8.2,13.7-14.1
		c3.6,5.3-0.3,13.5-6.6,15.1C662.3,219.5,659.6,220.4,657.3,222z"/>
</g>
<text transform="matrix(1 0 0 1 417.4048 474.0648)" class="st1 st2 st3">casey</text>
<text transform="matrix(1 0 0 1 526.6592 541.1488)" class="st1 st2 st4">DESIGN</text>
</svg>
